<?xml version="1.0" standalone="no"?>
<!DOCTYPE svg PUBLIC "-//W3C//DTD SVG 20010904//EN"
 "http://www.w3.org/TR/2001/REC-SVG-20010904/DTD/svg10.dtd">
<svg version="1.0" xmlns="http://www.w3.org/2000/svg"
 width="320.000000pt" height="320.000000pt" viewBox="0 0 320.000000 320.000000"
 preserveAspectRatio="xMidYMid meet">
<metadata>
Created by potrace 1.14, written by Peter Selinger 2001-2017
</metadata>
<g transform="translate(0.000000,320.000000) scale(0.100000,-0.100000)"
fill="#000000" stroke="none">
<path d="M356 2893 c-3 -16 -10 -55 -15 -88 -6 -33 -13 -73 -16 -90 -3 -16 -8
-46 -11 -65 -3 -19 -7 -42 -9 -50 -2 -8 -7 -31 -10 -50 -3 -19 -7 -46 -10 -60
-3 -14 -7 -41 -10 -60 -3 -19 -10 -57 -15 -85 -11 -58 -17 -91 -26 -152 l-6
-43 50 0 c55 0 56 1 67 70 5 34 14 86 21 122 3 17 113 156 125 157 3 1 39 -78
80 -174 l73 -175 58 0 c32 0 58 2 58 5 0 6 -45 117 -60 150 -6 11 -34 78 -64
150 -61 146 -63 126 25 227 31 34 89 101 129 148 l73 85 -59 3 c-52 3 -61 0
-77 -20 -11 -13 -33 -39 -50 -58 -18 -19 -61 -69 -97 -110 -148 -170 -180
-206 -180 -200 0 3 15 92 34 198 l33 192 -53 0 c-49 0 -53 -2 -58 -27z"/>
<path d="M1416 2692 c-3 -5 -4 -19 -1 -30 3 -20 -17 -35 -41 -31 -5 1 -28 1
-51 0 -40 -1 -42 -3 -45 -33 -3 -29 -6 -33 -33 -33 -26 0 -30 -4 -31 -28 -1
-34 -4 -36 -36 -39 -24 -2 -27 -7 -30 -51 -4 -64 5 -87 37 -87 17 0 25 -6 26
-17 1 -10 2 -25 3 -33 1 -10 12 -15 31 -15 27 0 30 -4 33 -32 3 -31 2 -33 -30
-33 -30 0 -34 -3 -36 -30 -1 -16 2 -31 8 -31 5 -1 20 -2 33 -3 17 -1 23 -8 25
-33 2 -18 9 -34 15 -34 7 -1 17 -2 22 -4 6 -1 16 -3 23 -3 8 -1 12 -12 10 -29
-3 -27 -5 -27 -69 -27 -60 0 -66 -2 -66 -21 -1 -41 -4 -45 -33 -45 -27 0 -30
-3 -30 -30 0 -24 -4 -30 -22 -30 -30 0 -50 -14 -48 -31 5 -31 0 -41 -19 -36
-28 7 -40 -5 -43 -41 -2 -30 -5 -33 -33 -30 l-30 3 -3 -67 c-3 -66 -4 -68 -30
-69 -15 -1 -30 -1 -33 -1 -5 1 -8 -73 -9 -240 -1 -54 7 -93 19 -90 38 8 50 -8
53 -71 2 -40 7 -62 16 -63 6 -1 21 -2 32 -3 12 0 20 -7 19 -13 -5 -43 1 -55
27 -50 31 6 46 -13 37 -46 -3 -12 -1 -22 3 -21 5 1 21 1 37 0 24 -1 27 -5 27
-36 0 -32 2 -35 24 -31 24 4 52 -15 40 -27 -3 -3 -3 -14 0 -24 5 -15 17 -18
68 -18 59 0 63 -2 64 -23 1 -12 4 -26 8 -30 7 -7 347 -10 379 -3 10 2 17 13
17 27 0 13 3 24 8 25 4 0 31 2 61 4 56 3 72 14 64 46 -3 12 0 19 8 20 8 1 19
2 24 4 6 1 15 3 21 3 5 1 9 16 8 32 -2 30 5 35 48 31 12 -2 18 7 20 31 2 21 9
33 18 34 42 3 50 5 49 12 -6 37 3 51 34 54 31 3 32 4 34 53 1 28 2 58 2 68 1
13 7 16 26 13 13 -3 27 0 31 5 6 11 8 318 1 325 -2 2 -16 5 -30 6 -29 3 -30 6
-29 81 l1 47 -36 0 c-32 0 -35 2 -31 25 3 14 1 25 -4 25 -5 0 -6 5 -3 10 4 6
-8 10 -30 10 -23 0 -35 5 -34 13 5 38 -2 54 -23 54 -42 1 -47 3 -43 21 5 26
-6 39 -35 43 -17 3 -25 11 -26 24 -1 11 -2 25 -3 31 -1 6 -22 11 -48 11 -84 1
-83 1 -83 34 0 23 4 30 18 28 43 -4 50 1 47 31 -1 17 0 31 4 31 3 1 16 3 29 4
29 3 35 10 37 40 1 22 -4 25 -32 25 -18 0 -33 3 -34 8 0 4 -2 15 -4 25 -4 19
30 38 53 30 12 -5 14 2 15 45 0 18 5 22 32 22 l32 0 -2 63 c-2 34 -3 65 -4 69
0 4 -13 8 -28 10 -20 2 -28 9 -28 23 -1 31 -13 43 -40 40 -17 -1 -25 3 -27 14
0 9 -2 21 -2 28 -2 21 -15 26 -73 27 -57 1 -58 1 -58 31 l-1 30 -131 3 c-72 1
-134 -1 -137 -6z m322 -890 c2 -18 9 -32 15 -33 7 -1 37 -2 67 -3 l55 -1 2
-60 c1 -33 2 -63 2 -67 1 -4 10 -5 21 -3 43 8 45 1 43 -148 0 -78 -2 -150 -2
-159 -1 -13 -10 -18 -33 -18 l-33 0 1 -65 c1 -72 8 -67 -83 -68 l-53 0 0 -34
0 -33 -195 0 c-107 0 -194 3 -194 8 1 4 1 19 0 34 -1 26 -2 27 -63 25 l-63 -2
-3 68 c-2 55 -6 67 -20 68 -9 1 -24 2 -32 3 -13 1 -15 26 -16 159 0 106 3 157
10 159 6 0 16 2 21 3 6 2 15 3 22 4 8 1 13 24 15 64 l3 62 50 1 c84 3 82 2 80
29 -2 14 3 28 10 32 8 5 94 8 192 8 l178 -1 3 -32z"/>
<path d="M2400 1063 c-1 -5 -5 -27 -9 -50 l-8 -43 123 0 c122 0 123 0 119 -22
-3 -13 -14 -75 -25 -138 -12 -63 -23 -126 -25 -140 -3 -14 -10 -54 -16 -90 -5
-36 -14 -83 -19 -105 -5 -22 -11 -58 -14 -80 -3 -22 -9 -52 -12 -67 -6 -28 -5
-28 49 -28 l55 0 7 38 c4 20 9 51 12 67 2 17 13 77 23 135 23 121 48 264 56
318 3 20 9 53 13 72 l7 35 127 3 c140 3 129 -3 141 75 l5 27 -305 0 c-167 0
-304 -3 -304 -7z"/>
</g>
</svg>
